<svg width="173" height="42" fill="none" xmlns="http://www.w3.org/2000/svg" viewBox="0 0 173 42"><path opacity=".5" d="M40 2.3 30.4 37c0 .1-.3.2-.4 0L23.3 31l5-17.4c0-.2-.2-.3-.3-.3L9.6 17.9l-6.5-6.2c-.1-.1 0-.3.1-.4L39.8 2c.2 0 .3.1.3.3Z" fill="#00B37E"/><path opacity=".5" d="m23.3 30.9-2.5 9c0 .1-.2.2-.4 0L.1 20.6c-.2 0-.1-.3 0-.3l9.5-2.4 13.7 13Z" fill="#00B37E"/><path d="m28.2 13.5-4.9 17.4-13.7-13L28 13.2c.1 0 .3 0 .2.3Z" fill="#00B37E"/><path d="M63.3 29.5h-4v-3h4c1 0 1.8-.1 2.5-.6.6-.4 1.1-1 1.5-2 .3-.8.5-1.8.5-3v-1a9 9 0 0 0-.3-2.4c-.2-.7-.5-1.3-.9-1.8-.3-.5-.8-.8-1.4-1-.5-.3-1.2-.5-1.9-.5h-4v-2.9h4c1.2 0 2.3.2 3.3.6a7.5 7.5 0 0 1 4.4 4.5c.4 1.1.6 2.3.6 3.6v.8c0 1.3-.2 2.5-.6 3.6a7.6 7.6 0 0 1-4.3 4.5 9 9 0 0 1-3.4.6Zm-1.9-18.2v18.2h-3.7V11.3h3.7Zm20.2 0v18.2H78V11.3h3.7Zm5.6 0v3H72.4v-3h14.8Zm9.6 0h3.1l4.7 13.4 4.7-13.4h3.1L106 29.5h-2.6l-6.5-18.2Zm-1.8 0h3.2l.6 13v5.2H95V11.3Zm16 0h3.2v18.2h-3.8v-5.2l.6-13Zm5.7 11.6v-.3c0-1 .1-1.9.4-2.7a5.5 5.5 0 0 1 3.2-3.6 6.8 6.8 0 0 1 5.5 0c.8.3 1.4.8 2 1.4.5.6 1 1.3 1.2 2.2.3.8.5 1.7.5 2.7v.3c0 1-.2 1.9-.5 2.7a5.5 5.5 0 0 1-3.2 3.6c-.8.4-1.7.5-2.7.5-1 0-2-.1-2.8-.5a5.7 5.7 0 0 1-3.2-3.6c-.3-.8-.4-1.7-.4-2.7Zm3.6-.3v.3l.1 1.6.5 1.3c.2.3.5.6.9.8.3.2.7.3 1.3.3.5 0 .9 0 1.3-.3l.8-.8.5-1.3.2-1.6v-.3l-.2-1.5a4 4 0 0 0-.5-1.3c-.2-.4-.5-.7-.9-1-.3-.1-.8-.3-1.3-.3s-.9.2-1.3.4c-.3.2-.6.5-.8.9l-.5 1.3-.1 1.5Zm14.9-3.7v10.6h-3.6V16h3.4l.2 2.9Zm-.5 3.4h-1c0-1 .1-2 .4-2.7.2-.8.6-1.5 1-2a4.7 4.7 0 0 1 4-1.9c.5 0 1.1.1 1.6.3.6.2 1 .5 1.4.9.4.4.7 1 .9 1.6.2.6.3 1.4.3 2.4v8.6h-3.6v-8.6c0-.6-.1-1.1-.3-1.4-.2-.4-.4-.6-.7-.7-.3-.2-.7-.2-1.2-.2s-1 0-1.3.2l-.8.8-.6 1.2-.1 1.5Zm17.5 7.4c-1 0-2-.1-2.8-.4a6.2 6.2 0 0 1-3.9-6.1v-.5c0-1 .1-2 .4-2.8.3-.9.7-1.6 1.3-2.2.5-.6 1.2-1.1 2-1.5.8-.3 1.7-.5 2.6-.5 1 0 1.8.2 2.6.5a5 5 0 0 1 1.8 1.4c.6.5 1 1.2 1.2 2 .3.9.4 1.8.4 2.8v1.5H147v-2.4h7.2v-.3c0-.5 0-1-.2-1.4l-.8-1c-.4-.1-.8-.3-1.4-.3-.5 0-.9.1-1.2.4-.4.2-.6.5-.9.8l-.4 1.4-.2 1.6v.5c0 .5 0 1 .2 1.5s.4.9.7 1.2l1 .8 1.5.2c.6 0 1.2 0 1.8-.3a4 4 0 0 0 1.4-1.2l1.8 1.9-1.2 1.2c-.5.4-1 .7-1.7.9-.7.2-1.5.3-2.4.3Zm11.5-1.7 3.6-12h3.8l-5.4 15.5-.5 1.1a4.4 4.4 0 0 1-2 2 4.6 4.6 0 0 1-2.6.3l-.8-.2v-2.6h.5c.5 0 .9 0 1.2-.2.3 0 .5-.2.7-.5l.5-.8 1-2.6Zm-1.5-12 2.9 9.8.5 3.8-2.4.2-4.9-13.8h3.9Z" fill="#E1E1E6"/></svg>